PathFileType	4	(X/Y/Z)	C:/Users/beibeiliu/ov580/test_trc/User3\sequence.4_training_dense_right.trc
DataRate	CameraRate	NumFrames	NumMarkers	Units	OrigDataRate	OrigDataStartFrame	OrigNumFrames
120	120	10	19	mm	120	157	209
Frame#	Time	ThumbCMC			ThumbMCP			ThumbIP			ThumbTip			IndexMCP			IndexPIP			IndexTip			MiddleMCP			MiddlePIP			MiddleTip			RingMCP			RingPIP			RingTip			PinkyMCP			PinkyPIP			PinkyTip			BackHand1			BackHand2			BackHand3	
		X0	Y0	Z0	X1	Y1	Z1	X2	Y2	Z2	X3	Y3	Z3	X4	Y4	Z4	X5	Y5	Z5	X6	Y6	Z6	X7	Y7	Z7	X8	Y8	Z8	X9	Y9	Z9	X10	Y10	Z10	X11	Y11	Z11	X12	Y12	Z12	X13	Y13	Z13	X14	Y14	Z14	X15	Y15	Z15	X16	Y16	Z16	X17	Y17	Z17	X18	Y18	Z18	
156	1.3	125.96	-78.1756	42.963	110.629	-97.5214	32.2822	94.5224	-117.759	16.101	82.7891	-132.377	6.41064	143.558	-106.384	-28.7461	138.411	-124.239	-50.8778	135.295	-140.432	-64.9831	175.62	-99.3475	-33.498	174.17	-111.474	-55.5648	182.358	-132.905	-84.0754	194.701	-97.5176	-23.0982	202.538	-108.02	-44.8046	210.089	-121.058	-65.6226	214.658	-97.112	3.2735	224.771	-105.326	-13.8199	242.109	-111.24	-31.8095	187.32	-70.0389	15.5203	184.144	-52.3727	42.2798	154.614	-60.402	23.0729	
157	1.30833	122.618	-79.71	49.1828	105.229	-101.707	32.5451	87.3276	-120.333	19.0956	76.4638	-135.723	10.7719	141.098	-115.349	-19.2405	129.866	-133.94	-39.7631	126.076	-154.841	-56.8206	168.719	-113.772	-29.21	172.156	-130.938	-50.5371	174.598	-152.15	-73.5512	193.918	-112.087	-13.1487	197.087	-123.47	-34.01	206.666	-140.124	-54.1507	210.926	-110.384	8.66404	219.059	-121.602	-6.40996	233.279	-129.982	-20.4877	185.025	-75.5589	22.6351	182.892	-56.5245	43.0738	149.892	-68.1391	26.2715	
158	1.31667	121.544	-82.4152	48.3575	101.255	-97.462	40.6179	83.3675	-117.834	26.3696	65.7192	-130.436	18.2847	134.904	-122.897	-15.7403	122.522	-139.242	-30.011	118.64	-161.178	-47.1064	165.233	-123.225	-19.3718	163.901	-141.912	-39.9685	164.664	-166.544	-60.7546	185.662	-123.694	-7.33221	188.365	-138.737	-25.1431	192.046	-159.717	-47.3763	205.685	-122.262	14.7102	211.801	-137.638	-0.787832	226.562	-148.508	-11.1055	183.807	-86.8421	21.8016	182.29	-66.2941	44.1733	148.662	-72.9911	28.1971	
159	1.325	119.856	-75.2512	53.4766	101.69	-94.9572	42.3478	80.3634	-108.806	32.5702	59.9722	-122.456	22.5378	124.891	-125.673	-9.43231	115.151	-141.722	-22.016	102.952	-162.662	-37.5522	155.911	-129.423	-11.9241	153.746	-154.777	-33.8848	149.446	-175.476	-48.7976	174.664	-132.254	-0.265005	178.149	-151.169	-19.5898	181.086	-171.452	-34.37	193.139	-131.425	20.8891	203.296	-149.728	8.15624	208.772	-165.817	-5.28952	182.428	-90.9485	28.8298	187.011	-72.4219	46.3125	153.47	-75.5491	28.8802	
160	1.33333	122.112	-74.33	53.6505	94.9044	-83.9333	47.0488	71.3922	-96.6049	36.0652	53.3018	-108.508	28.3382	115.599	-122.998	-3.32948	103.872	-140.337	-15.4096	90.3956	-161.11	-31.5126	142.796	-134.937	-9.58083	135.618	-156.659	-26.1245	131.196	-179.339	-39.438	164.357	-139.59	1.47314	162.438	-157.455	-12.7578	162.304	-181.531	-27.3835	185.391	-140.181	24.5331	186.844	-156.3	15.2273	194.439	-175.548	5.49685	176.518	-93.5344	30.6138	186.011	-76.7164	46.1683	148.244	-72.9288	32.6764	
161	1.34167	121.237	-63.1551	57.6301	93.4159	-74.4144	47.9416	68.1356	-86.566	35.547	52.5262	-92.6733	33.0714	108.369	-116.576	1.13454	94.0888	-134.97	-10.7632	77.1057	-153.457	-24.2681	130.687	-132.746	-4.80361	125.69	-153.588	-16.1021	109.92	-174.933	-33.574	152.724	-140.234	8.482	148.203	-159.748	-6.66091	143.885	-179.457	-18.4879	171.634	-143.615	28.4233	175.512	-162.371	21.7531	177.794	-182.906	12.0012	168.574	-96.8304	29.8691	183.746	-74.4559	49.2484	148.237	-68.9249	33.6496	
162	1.35	121.814	-56.2848	55.123	93.1796	-60.8194	47.1954	69.4657	-70.965	37.0279	50.8701	-78.2518	32.7579	102.553	-109.192	4.49699	85.701	-125.655	-8.0638	67.1854	-137.245	-18.7755	121.233	-129.394	-1.35755	108.3	-146.562	-14.4096	91.2666	-170.809	-30.9795	137.725	-137.081	9.64274	130.981	-154.268	-3.99299	120.502	-178.589	-17.0135	161.363	-142.567	33.6602	156.618	-162.795	23.2592	153.835	-185.238	14.5889	165.25	-101.198	31.3638	182.759	-79.9262	47.8105	143.895	-68.7819	32.5707	
163	1.35833	121.576	-45.4853	56.4288	93.0674	-52.6758	45.1028	67.2963	-59.7568	35.2503	47.4722	-61.9726	30.7474	89.8924	-99.3414	1.00286	74.9395	-113.517	-8.9117	56.3183	-130.39	-21.2323	109.449	-118.598	-0.686127	96.4697	-139.783	-12.5114	75.4895	-156.064	-26.4142	126.69	-132.51	10.5199	117.171	-151.101	-2.34149	105.08	-169.607	-13.3421	144.479	-140.438	32.3661	138.012	-158.67	23.7033	133.651	-181.149	13.3906	157.189	-95.736	30.9203	176.399	-81.1277	45.1664	144.648	-63.0333	34.9247	
164	1.36667	122.796	-42.0128	54.1604	93.6303	-41.9886	44.5878	65.8284	-45.1452	31.5267	48.8938	-45.9987	29.0729	89.4001	-90.8581	0.514982	65.6462	-101.133	-13.5931	49.6366	-112.742	-22.2621	98.5389	-111.557	-2.19885	81.1524	-127.226	-14.4271	60.208	-146.517	-28.936	113.666	-125.637	9.94363	101.108	-142.377	-2.37543	85.006	-160.491	-15.7292	131.937	-135.271	33.1386	125.628	-155.365	27.2275	115.141	-176.061	14.3225	151.776	-96.1479	30.5757	173.933	-81.2546	48.3209	143.294	-60.0867	33.5835	
165	1.375	126.158	-35.9081	50.91	95.1124	-32.8352	40.6364	66.2696	-30.2133	25.7405	48.4911	-29.7897	21.1677	85.3455	-77.9193	-2.55142	62.4881	-89.0502	-18.4796	44.5675	-96.8819	-27.8826	95.3895	-106.038	-0.582237	71.8156	-119.995	-16.5846	50.0339	-133.847	-30.7332	105.157	-120.616	10.7212	89.2968	-130.048	-3.24813	71.1971	-150.586	-15.4555	115.534	-129.829	30.1202	108.431	-145.39	24.9854	98.8793	-168.324	15.7724	145.925	-91.8513	31.7361	166.132	-85.411	47.4115	142.04	-59.2404	30.0883	
